<svg width="905" height="757" viewBox="0 0 905 757" fill="none" xmlns="http://www.w3.org/2000/svg">
<mask id="path-1-outside-1_59_31" maskUnits="userSpaceOnUse" x="0" y="634" width="905" height="123" fill="black">
<rect fill="white" y="634" width="905" height="123"/>
<path d="M866.009 755.6C860.876 755.6 856.076 755.133 851.609 754.2C847.209 753.333 843.509 752.167 840.509 750.7C837.509 749.233 835.043 747.833 833.109 746.5C831.243 745.167 829.676 743.833 828.409 742.5L830.909 718.2C833.643 721.867 837.309 725.067 841.909 727.8C846.509 730.467 851.476 731.8 856.809 731.8C862.143 731.8 865.976 731.233 868.309 730.1C870.709 728.967 871.909 726.9 871.909 723.9C871.909 720.7 870.543 717.967 867.809 715.7C865.143 713.433 860.509 710.7 853.909 707.5C851.509 706.3 849.476 705.233 847.809 704.3C846.143 703.3 843.909 701.7 841.109 699.5C838.376 697.233 836.143 694.9 834.409 692.5C832.676 690.033 831.143 686.9 829.809 683.1C828.476 679.233 827.809 675.1 827.809 670.7C827.809 646.9 841.243 635 868.109 635C872.376 635 876.376 635.467 880.109 636.4C883.909 637.267 886.876 638.233 889.009 639.3C891.143 640.367 893.076 641.633 894.809 643.1C896.609 644.5 897.743 645.5 898.209 646.1C898.676 646.633 899.009 647.067 899.209 647.4L894.209 666.7C891.609 663.633 888.343 661.367 884.409 659.9C880.543 658.367 876.843 657.6 873.309 657.6C864.776 657.6 860.509 660.267 860.509 665.6C860.509 667 860.776 668.267 861.309 669.4C861.843 670.533 862.709 671.567 863.909 672.5C865.109 673.433 866.209 674.233 867.209 674.9C868.276 675.567 869.709 676.4 871.509 677.4C873.376 678.333 874.776 679.1 875.709 679.7C885.443 683.833 892.576 688.733 897.109 694.4C901.709 700.067 904.009 706.967 904.009 715.1C904.009 728.3 900.743 738.367 894.209 745.3C887.743 752.167 878.343 755.6 866.009 755.6Z"/>
<path d="M758.513 755.6C753.38 755.6 748.58 755.133 744.113 754.2C739.713 753.333 736.013 752.167 733.013 750.7C730.013 749.233 727.547 747.833 725.613 746.5C723.747 745.167 722.18 743.833 720.913 742.5L723.413 718.2C726.147 721.867 729.813 725.067 734.413 727.8C739.013 730.467 743.98 731.8 749.313 731.8C754.647 731.8 758.48 731.233 760.813 730.1C763.213 728.967 764.413 726.9 764.413 723.9C764.413 720.7 763.047 717.967 760.313 715.7C757.647 713.433 753.013 710.7 746.413 707.5C744.013 706.3 741.98 705.233 740.313 704.3C738.647 703.3 736.413 701.7 733.613 699.5C730.88 697.233 728.647 694.9 726.913 692.5C725.18 690.033 723.647 686.9 722.313 683.1C720.98 679.233 720.313 675.1 720.313 670.7C720.313 646.9 733.747 635 760.613 635C764.88 635 768.88 635.467 772.613 636.4C776.413 637.267 779.38 638.233 781.513 639.3C783.647 640.367 785.58 641.633 787.313 643.1C789.113 644.5 790.247 645.5 790.713 646.1C791.18 646.633 791.513 647.067 791.713 647.4L786.713 666.7C784.113 663.633 780.847 661.367 776.913 659.9C773.047 658.367 769.347 657.6 765.813 657.6C757.28 657.6 753.013 660.267 753.013 665.6C753.013 667 753.28 668.267 753.813 669.4C754.347 670.533 755.213 671.567 756.413 672.5C757.613 673.433 758.713 674.233 759.713 674.9C760.78 675.567 762.213 676.4 764.013 677.4C765.88 678.333 767.28 679.1 768.213 679.7C777.947 683.833 785.08 688.733 789.613 694.4C794.213 700.067 796.513 706.967 796.513 715.1C796.513 728.3 793.247 738.367 786.713 745.3C780.247 752.167 770.847 755.6 758.513 755.6Z"/>
<path d="M658.969 753.5L654.469 734.8H626.069L622.269 753.5H592.869L623.369 644.4L620.969 636.3H662.269L695.669 753.5H658.969ZM638.969 670.7L630.169 714.4H649.569L638.969 670.7Z"/>
<path d="M516.819 753.5H483.719V636.3H496.919C500.452 636.3 505.785 636.167 512.919 635.9C520.052 635.567 525.919 635.4 530.519 635.4C543.452 635.4 553.252 638.833 559.919 645.7C566.585 652.567 569.919 662.867 569.919 676.6C569.919 684.867 568.819 692.4 566.619 699.2C564.485 705.933 561.585 711.467 557.919 715.8C554.252 720.133 550.085 723.467 545.419 725.8C540.752 728.133 535.819 729.3 530.619 729.3C529.952 729.3 529.252 729.3 528.519 729.3C527.852 729.3 527.219 729.3 526.619 729.3C526.085 729.233 525.419 729.2 524.619 729.2C523.885 729.133 523.285 729.1 522.819 729.1C522.419 729.033 521.819 729 521.019 729C520.285 728.933 519.785 728.9 519.519 728.9C519.252 728.9 518.752 728.867 518.019 728.8C517.285 728.733 516.885 728.7 516.819 728.7V753.5ZM537.119 672.2C537.119 667.267 535.785 663.267 533.119 660.2C530.452 657.133 526.619 655.6 521.619 655.6H516.819V707.6H520.519C525.785 707.6 529.852 705.833 532.719 702.3C535.652 698.767 537.119 693.667 537.119 687V672.2Z"/>
<path d="M387.643 753.5H354.543V636.3H387.643V682.7H413.343V636.3H446.443V753.5H413.343V705.7H387.643V753.5Z"/>
<path d="M281.947 755.6C276.814 755.6 272.014 755.133 267.547 754.2C263.147 753.333 259.447 752.167 256.447 750.7C253.447 749.233 250.98 747.833 249.047 746.5C247.18 745.167 245.613 743.833 244.347 742.5L246.847 718.2C249.58 721.867 253.247 725.067 257.847 727.8C262.447 730.467 267.413 731.8 272.747 731.8C278.08 731.8 281.913 731.233 284.247 730.1C286.647 728.967 287.847 726.9 287.847 723.9C287.847 720.7 286.48 717.967 283.747 715.7C281.08 713.433 276.447 710.7 269.847 707.5C267.447 706.3 265.413 705.233 263.747 704.3C262.08 703.3 259.847 701.7 257.047 699.5C254.314 697.233 252.08 694.9 250.347 692.5C248.613 690.033 247.08 686.9 245.747 683.1C244.413 679.233 243.747 675.1 243.747 670.7C243.747 646.9 257.18 635 284.047 635C288.314 635 292.314 635.467 296.047 636.4C299.847 637.267 302.814 638.233 304.947 639.3C307.08 640.367 309.013 641.633 310.747 643.1C312.547 644.5 313.68 645.5 314.147 646.1C314.613 646.633 314.947 647.067 315.147 647.4L310.147 666.7C307.547 663.633 304.28 661.367 300.347 659.9C296.48 658.367 292.78 657.6 289.247 657.6C280.714 657.6 276.447 660.267 276.447 665.6C276.447 667 276.714 668.267 277.247 669.4C277.78 670.533 278.647 671.567 279.847 672.5C281.047 673.433 282.147 674.233 283.147 674.9C284.214 675.567 285.647 676.4 287.447 677.4C289.314 678.333 290.714 679.1 291.647 679.7C301.38 683.833 308.514 688.733 313.047 694.4C317.647 700.067 319.947 706.967 319.947 715.1C319.947 728.3 316.68 738.367 310.147 745.3C303.68 752.167 294.28 755.6 281.947 755.6Z"/>
<path d="M182.402 753.5L177.902 734.8H149.503L145.702 753.5H116.302L146.802 644.4L144.402 636.3H185.702L219.102 753.5H182.402ZM162.402 670.7L153.602 714.4H173.003L162.402 670.7Z"/>
<path d="M40.5 737.1C45.5667 737.1 49.4333 733.967 52.1 727.7C54.8333 721.433 56.2 711.1 56.2 696.7V686.6C56.2 676.067 54.9333 667.933 52.4 662.2C49.8667 656.467 46.2667 653.6 41.6 653.6H34.1V737.1H40.5ZM43.6 754.2C41.2 754.2 37.4667 754.067 32.4 753.8C27.4 753.6 22.2333 753.5 16.9 753.5H1V636.3H16.9C21.3667 636.233 26.2333 636.067 31.5 635.8C36.7667 635.533 40.9 635.4 43.9 635.4C60.9 635.4 73.0667 640.167 80.4 649.7C87.8 659.233 91.5 673.133 91.5 691.4C91.5 697.6 91.0667 703.5 90.2 709.1C89.4 714.7 87.8667 720.333 85.6 726C83.3333 731.6 80.4667 736.433 77 740.5C73.5333 744.567 68.9333 747.867 63.2 750.4C57.4667 752.933 50.9333 754.2 43.6 754.2Z"/>
</mask>
<path d="M866.009 755.6C860.876 755.6 856.076 755.133 851.609 754.2C847.209 753.333 843.509 752.167 840.509 750.7C837.509 749.233 835.043 747.833 833.109 746.5C831.243 745.167 829.676 743.833 828.409 742.5L830.909 718.2C833.643 721.867 837.309 725.067 841.909 727.8C846.509 730.467 851.476 731.8 856.809 731.8C862.143 731.8 865.976 731.233 868.309 730.1C870.709 728.967 871.909 726.9 871.909 723.9C871.909 720.7 870.543 717.967 867.809 715.7C865.143 713.433 860.509 710.7 853.909 707.5C851.509 706.3 849.476 705.233 847.809 704.3C846.143 703.3 843.909 701.7 841.109 699.5C838.376 697.233 836.143 694.9 834.409 692.5C832.676 690.033 831.143 686.9 829.809 683.1C828.476 679.233 827.809 675.1 827.809 670.7C827.809 646.9 841.243 635 868.109 635C872.376 635 876.376 635.467 880.109 636.4C883.909 637.267 886.876 638.233 889.009 639.3C891.143 640.367 893.076 641.633 894.809 643.1C896.609 644.5 897.743 645.5 898.209 646.1C898.676 646.633 899.009 647.067 899.209 647.4L894.209 666.7C891.609 663.633 888.343 661.367 884.409 659.9C880.543 658.367 876.843 657.6 873.309 657.6C864.776 657.6 860.509 660.267 860.509 665.6C860.509 667 860.776 668.267 861.309 669.4C861.843 670.533 862.709 671.567 863.909 672.5C865.109 673.433 866.209 674.233 867.209 674.9C868.276 675.567 869.709 676.4 871.509 677.4C873.376 678.333 874.776 679.1 875.709 679.7C885.443 683.833 892.576 688.733 897.109 694.4C901.709 700.067 904.009 706.967 904.009 715.1C904.009 728.3 900.743 738.367 894.209 745.3C887.743 752.167 878.343 755.6 866.009 755.6Z" fill="#408C8A"/>
<path d="M758.513 755.6C753.38 755.6 748.58 755.133 744.113 754.2C739.713 753.333 736.013 752.167 733.013 750.7C730.013 749.233 727.547 747.833 725.613 746.5C723.747 745.167 722.18 743.833 720.913 742.5L723.413 718.2C726.147 721.867 729.813 725.067 734.413 727.8C739.013 730.467 743.98 731.8 749.313 731.8C754.647 731.8 758.48 731.233 760.813 730.1C763.213 728.967 764.413 726.9 764.413 723.9C764.413 720.7 763.047 717.967 760.313 715.7C757.647 713.433 753.013 710.7 746.413 707.5C744.013 706.3 741.98 705.233 740.313 704.3C738.647 703.3 736.413 701.7 733.613 699.5C730.88 697.233 728.647 694.9 726.913 692.5C725.18 690.033 723.647 686.9 722.313 683.1C720.98 679.233 720.313 675.1 720.313 670.7C720.313 646.9 733.747 635 760.613 635C764.88 635 768.88 635.467 772.613 636.4C776.413 637.267 779.38 638.233 781.513 639.3C783.647 640.367 785.58 641.633 787.313 643.1C789.113 644.5 790.247 645.5 790.713 646.1C791.18 646.633 791.513 647.067 791.713 647.4L786.713 666.7C784.113 663.633 780.847 661.367 776.913 659.9C773.047 658.367 769.347 657.6 765.813 657.6C757.28 657.6 753.013 660.267 753.013 665.6C753.013 667 753.28 668.267 753.813 669.4C754.347 670.533 755.213 671.567 756.413 672.5C757.613 673.433 758.713 674.233 759.713 674.9C760.78 675.567 762.213 676.4 764.013 677.4C765.88 678.333 767.28 679.1 768.213 679.7C777.947 683.833 785.08 688.733 789.613 694.4C794.213 700.067 796.513 706.967 796.513 715.1C796.513 728.3 793.247 738.367 786.713 745.3C780.247 752.167 770.847 755.6 758.513 755.6Z" fill="#408C8A"/>
<path d="M658.969 753.5L654.469 734.8H626.069L622.269 753.5H592.869L623.369 644.4L620.969 636.3H662.269L695.669 753.5H658.969ZM638.969 670.7L630.169 714.4H649.569L638.969 670.7Z" fill="#408C8A"/>
<path d="M516.819 753.5H483.719V636.3H496.919C500.452 636.3 505.785 636.167 512.919 635.9C520.052 635.567 525.919 635.4 530.519 635.4C543.452 635.4 553.252 638.833 559.919 645.7C566.585 652.567 569.919 662.867 569.919 676.6C569.919 684.867 568.819 692.4 566.619 699.2C564.485 705.933 561.585 711.467 557.919 715.8C554.252 720.133 550.085 723.467 545.419 725.8C540.752 728.133 535.819 729.3 530.619 729.3C529.952 729.3 529.252 729.3 528.519 729.3C527.852 729.3 527.219 729.3 526.619 729.3C526.085 729.233 525.419 729.2 524.619 729.2C523.885 729.133 523.285 729.1 522.819 729.1C522.419 729.033 521.819 729 521.019 729C520.285 728.933 519.785 728.9 519.519 728.9C519.252 728.9 518.752 728.867 518.019 728.8C517.285 728.733 516.885 728.7 516.819 728.7V753.5ZM537.119 672.2C537.119 667.267 535.785 663.267 533.119 660.2C530.452 657.133 526.619 655.6 521.619 655.6H516.819V707.6H520.519C525.785 707.6 529.852 705.833 532.719 702.3C535.652 698.767 537.119 693.667 537.119 687V672.2Z" fill="#408C8A"/>
<path d="M387.643 753.5H354.543V636.3H387.643V682.7H413.343V636.3H446.443V753.5H413.343V705.7H387.643V753.5Z" fill="#408C8A"/>
<path d="M281.947 755.6C276.814 755.6 272.014 755.133 267.547 754.2C263.147 753.333 259.447 752.167 256.447 750.7C253.447 749.233 250.98 747.833 249.047 746.5C247.18 745.167 245.613 743.833 244.347 742.5L246.847 718.2C249.58 721.867 253.247 725.067 257.847 727.8C262.447 730.467 267.413 731.8 272.747 731.8C278.08 731.8 281.913 731.233 284.247 730.1C286.647 728.967 287.847 726.9 287.847 723.9C287.847 720.7 286.48 717.967 283.747 715.7C281.08 713.433 276.447 710.7 269.847 707.5C267.447 706.3 265.413 705.233 263.747 704.3C262.08 703.3 259.847 701.7 257.047 699.5C254.314 697.233 252.08 694.9 250.347 692.5C248.613 690.033 247.08 686.9 245.747 683.1C244.413 679.233 243.747 675.1 243.747 670.7C243.747 646.9 257.18 635 284.047 635C288.314 635 292.314 635.467 296.047 636.4C299.847 637.267 302.814 638.233 304.947 639.3C307.08 640.367 309.013 641.633 310.747 643.1C312.547 644.5 313.68 645.5 314.147 646.1C314.613 646.633 314.947 647.067 315.147 647.4L310.147 666.7C307.547 663.633 304.28 661.367 300.347 659.9C296.48 658.367 292.78 657.6 289.247 657.6C280.714 657.6 276.447 660.267 276.447 665.6C276.447 667 276.714 668.267 277.247 669.4C277.78 670.533 278.647 671.567 279.847 672.5C281.047 673.433 282.147 674.233 283.147 674.9C284.214 675.567 285.647 676.4 287.447 677.4C289.314 678.333 290.714 679.1 291.647 679.7C301.38 683.833 308.514 688.733 313.047 694.4C317.647 700.067 319.947 706.967 319.947 715.1C319.947 728.3 316.68 738.367 310.147 745.3C303.68 752.167 294.28 755.6 281.947 755.6Z" fill="#408C8A"/>
<path d="M182.402 753.5L177.902 734.8H149.503L145.702 753.5H116.302L146.802 644.4L144.402 636.3H185.702L219.102 753.5H182.402ZM162.402 670.7L153.602 714.4H173.003L162.402 670.7Z" fill="#408C8A"/>
<path d="M40.5 737.1C45.5667 737.1 49.4333 733.967 52.1 727.7C54.8333 721.433 56.2 711.1 56.2 696.7V686.6C56.2 676.067 54.9333 667.933 52.4 662.2C49.8667 656.467 46.2667 653.6 41.6 653.6H34.1V737.1H40.5ZM43.6 754.2C41.2 754.2 37.4667 754.067 32.4 753.8C27.4 753.6 22.2333 753.5 16.9 753.5H1V636.3H16.9C21.3667 636.233 26.2333 636.067 31.5 635.8C36.7667 635.533 40.9 635.4 43.9 635.4C60.9 635.4 73.0667 640.167 80.4 649.7C87.8 659.233 91.5 673.133 91.5 691.4C91.5 697.6 91.0667 703.5 90.2 709.1C89.4 714.7 87.8667 720.333 85.6 726C83.3333 731.6 80.4667 736.433 77 740.5C73.5333 744.567 68.9333 747.867 63.2 750.4C57.4667 752.933 50.9333 754.2 43.6 754.2Z" fill="#408C8A"/>
<path d="M866.009 755.6C860.876 755.6 856.076 755.133 851.609 754.2C847.209 753.333 843.509 752.167 840.509 750.7C837.509 749.233 835.043 747.833 833.109 746.5C831.243 745.167 829.676 743.833 828.409 742.5L830.909 718.2C833.643 721.867 837.309 725.067 841.909 727.8C846.509 730.467 851.476 731.8 856.809 731.8C862.143 731.8 865.976 731.233 868.309 730.1C870.709 728.967 871.909 726.9 871.909 723.9C871.909 720.7 870.543 717.967 867.809 715.7C865.143 713.433 860.509 710.7 853.909 707.5C851.509 706.3 849.476 705.233 847.809 704.3C846.143 703.3 843.909 701.7 841.109 699.5C838.376 697.233 836.143 694.9 834.409 692.5C832.676 690.033 831.143 686.9 829.809 683.1C828.476 679.233 827.809 675.1 827.809 670.7C827.809 646.9 841.243 635 868.109 635C872.376 635 876.376 635.467 880.109 636.4C883.909 637.267 886.876 638.233 889.009 639.3C891.143 640.367 893.076 641.633 894.809 643.1C896.609 644.5 897.743 645.5 898.209 646.1C898.676 646.633 899.009 647.067 899.209 647.4L894.209 666.7C891.609 663.633 888.343 661.367 884.409 659.9C880.543 658.367 876.843 657.6 873.309 657.6C864.776 657.6 860.509 660.267 860.509 665.6C860.509 667 860.776 668.267 861.309 669.4C861.843 670.533 862.709 671.567 863.909 672.5C865.109 673.433 866.209 674.233 867.209 674.9C868.276 675.567 869.709 676.4 871.509 677.4C873.376 678.333 874.776 679.1 875.709 679.7C885.443 683.833 892.576 688.733 897.109 694.4C901.709 700.067 904.009 706.967 904.009 715.1C904.009 728.3 900.743 738.367 894.209 745.3C887.743 752.167 878.343 755.6 866.009 755.6Z" stroke="black" mask="url(#path-1-outside-1_59_31)"/>
<path d="M758.513 755.6C753.38 755.6 748.58 755.133 744.113 754.2C739.713 753.333 736.013 752.167 733.013 750.7C730.013 749.233 727.547 747.833 725.613 746.5C723.747 745.167 722.18 743.833 720.913 742.5L723.413 718.2C726.147 721.867 729.813 725.067 734.413 727.8C739.013 730.467 743.98 731.8 749.313 731.8C754.647 731.8 758.48 731.233 760.813 730.1C763.213 728.967 764.413 726.9 764.413 723.9C764.413 720.7 763.047 717.967 760.313 715.7C757.647 713.433 753.013 710.7 746.413 707.5C744.013 706.3 741.98 705.233 740.313 704.3C738.647 703.3 736.413 701.7 733.613 699.5C730.88 697.233 728.647 694.9 726.913 692.5C725.18 690.033 723.647 686.9 722.313 683.1C720.98 679.233 720.313 675.1 720.313 670.7C720.313 646.9 733.747 635 760.613 635C764.88 635 768.88 635.467 772.613 636.4C776.413 637.267 779.38 638.233 781.513 639.3C783.647 640.367 785.58 641.633 787.313 643.1C789.113 644.5 790.247 645.5 790.713 646.1C791.18 646.633 791.513 647.067 791.713 647.4L786.713 666.7C784.113 663.633 780.847 661.367 776.913 659.9C773.047 658.367 769.347 657.6 765.813 657.6C757.28 657.6 753.013 660.267 753.013 665.6C753.013 667 753.28 668.267 753.813 669.4C754.347 670.533 755.213 671.567 756.413 672.5C757.613 673.433 758.713 674.233 759.713 674.9C760.78 675.567 762.213 676.4 764.013 677.4C765.88 678.333 767.28 679.1 768.213 679.7C777.947 683.833 785.08 688.733 789.613 694.4C794.213 700.067 796.513 706.967 796.513 715.1C796.513 728.3 793.247 738.367 786.713 745.3C780.247 752.167 770.847 755.6 758.513 755.6Z" stroke="black" mask="url(#path-1-outside-1_59_31)"/>
<path d="M658.969 753.5L654.469 734.8H626.069L622.269 753.5H592.869L623.369 644.4L620.969 636.3H662.269L695.669 753.5H658.969ZM638.969 670.7L630.169 714.4H649.569L638.969 670.7Z" stroke="black" mask="url(#path-1-outside-1_59_31)"/>
<path d="M516.819 753.5H483.719V636.3H496.919C500.452 636.3 505.785 636.167 512.919 635.9C520.052 635.567 525.919 635.4 530.519 635.4C543.452 635.4 553.252 638.833 559.919 645.7C566.585 652.567 569.919 662.867 569.919 676.6C569.919 684.867 568.819 692.4 566.619 699.2C564.485 705.933 561.585 711.467 557.919 715.8C554.252 720.133 550.085 723.467 545.419 725.8C540.752 728.133 535.819 729.3 530.619 729.3C529.952 729.3 529.252 729.3 528.519 729.3C527.852 729.3 527.219 729.3 526.619 729.3C526.085 729.233 525.419 729.2 524.619 729.2C523.885 729.133 523.285 729.1 522.819 729.1C522.419 729.033 521.819 729 521.019 729C520.285 728.933 519.785 728.9 519.519 728.9C519.252 728.9 518.752 728.867 518.019 728.8C517.285 728.733 516.885 728.7 516.819 728.7V753.5ZM537.119 672.2C537.119 667.267 535.785 663.267 533.119 660.2C530.452 657.133 526.619 655.6 521.619 655.6H516.819V707.6H520.519C525.785 707.6 529.852 705.833 532.719 702.3C535.652 698.767 537.119 693.667 537.119 687V672.2Z" stroke="black" mask="url(#path-1-outside-1_59_31)"/>
<path d="M387.643 753.5H354.543V636.3H387.643V682.7H413.343V636.3H446.443V753.5H413.343V705.7H387.643V753.5Z" stroke="black" mask="url(#path-1-outside-1_59_31)"/>
<path d="M281.947 755.6C276.814 755.6 272.014 755.133 267.547 754.2C263.147 753.333 259.447 752.167 256.447 750.7C253.447 749.233 250.98 747.833 249.047 746.5C247.18 745.167 245.613 743.833 244.347 742.5L246.847 718.2C249.58 721.867 253.247 725.067 257.847 727.8C262.447 730.467 267.413 731.8 272.747 731.8C278.08 731.8 281.913 731.233 284.247 730.1C286.647 728.967 287.847 726.9 287.847 723.9C287.847 720.7 286.48 717.967 283.747 715.7C281.08 713.433 276.447 710.7 269.847 707.5C267.447 706.3 265.413 705.233 263.747 704.3C262.08 703.3 259.847 701.7 257.047 699.5C254.314 697.233 252.08 694.9 250.347 692.5C248.613 690.033 247.08 686.9 245.747 683.1C244.413 679.233 243.747 675.1 243.747 670.7C243.747 646.9 257.18 635 284.047 635C288.314 635 292.314 635.467 296.047 636.4C299.847 637.267 302.814 638.233 304.947 639.3C307.08 640.367 309.013 641.633 310.747 643.1C312.547 644.5 313.68 645.5 314.147 646.1C314.613 646.633 314.947 647.067 315.147 647.4L310.147 666.7C307.547 663.633 304.28 661.367 300.347 659.9C296.48 658.367 292.78 657.6 289.247 657.6C280.714 657.6 276.447 660.267 276.447 665.6C276.447 667 276.714 668.267 277.247 669.4C277.78 670.533 278.647 671.567 279.847 672.5C281.047 673.433 282.147 674.233 283.147 674.9C284.214 675.567 285.647 676.4 287.447 677.4C289.314 678.333 290.714 679.1 291.647 679.7C301.38 683.833 308.514 688.733 313.047 694.4C317.647 700.067 319.947 706.967 319.947 715.1C319.947 728.3 316.68 738.367 310.147 745.3C303.68 752.167 294.28 755.6 281.947 755.6Z" stroke="black" mask="url(#path-1-outside-1_59_31)"/>
<path d="M182.402 753.5L177.902 734.8H149.503L145.702 753.5H116.302L146.802 644.4L144.402 636.3H185.702L219.102 753.5H182.402ZM162.402 670.7L153.602 714.4H173.003L162.402 670.7Z" stroke="black" mask="url(#path-1-outside-1_59_31)"/>
<path d="M40.5 737.1C45.5667 737.1 49.4333 733.967 52.1 727.7C54.8333 721.433 56.2 711.1 56.2 696.7V686.6C56.2 676.067 54.9333 667.933 52.4 662.2C49.8667 656.467 46.2667 653.6 41.6 653.6H34.1V737.1H40.5ZM43.6 754.2C41.2 754.2 37.4667 754.067 32.4 753.8C27.4 753.6 22.2333 753.5 16.9 753.5H1V636.3H16.9C21.3667 636.233 26.2333 636.067 31.5 635.8C36.7667 635.533 40.9 635.4 43.9 635.4C60.9 635.4 73.0667 640.167 80.4 649.7C87.8 659.233 91.5 673.133 91.5 691.4C91.5 697.6 91.0667 703.5 90.2 709.1C89.4 714.7 87.8667 720.333 85.6 726C83.3333 731.6 80.4667 736.433 77 740.5C73.5333 744.567 68.9333 747.867 63.2 750.4C57.4667 752.933 50.9333 754.2 43.6 754.2Z" stroke="black" mask="url(#path-1-outside-1_59_31)"/>
<path d="M523.5 1H260.5V177L648 76.5L571 153.5L655.5 147L153 564L260.5 525H523.5C579 525 617.5 515.5 694.5 449.5C771.5 383.5 767.5 308 767.5 252C767.5 196 757 134.5 694.5 76.5C632 18.5 571.5 1 523.5 1Z" fill="#408C8A"/>
<path d="M195 195.5L398.5 215L260.5 405.5V244L195 195.5Z" fill="#408C8A"/>
<path d="M523.5 1H260.5V177L648 76.5L571 153.5L655.5 147L153 564L260.5 525H523.5C579 525 617.5 515.5 694.5 449.5C771.5 383.5 767.5 308 767.5 252C767.5 196 757 134.5 694.5 76.5C632 18.5 571.5 1 523.5 1Z" stroke="black"/>
<path d="M195 195.5L398.5 215L260.5 405.5V244L195 195.5Z" stroke="black"/>
<path d="M647.5 77.5L138 577L430.5 172L647.5 77.5Z" fill="white" stroke="black"/>
<path d="M194 195L647.5 77.5L430.5 172L194 195Z" fill="#ECECEC" stroke="black"/>
<path d="M654 148L138.5 577L570.5 153.5L654 148Z" fill="#1F4544"/>
<path d="M398.5 214.5L196 196L428.5 173L398.5 214.5Z" fill="#1F4544"/>
<path d="M654 148L138.5 577L570.5 153.5L654 148Z" stroke="black"/>
<path d="M398.5 214.5L196 196L428.5 173L398.5 214.5Z" stroke="black"/>
</svg>
